<svg xmlns="http://www.w3.org/2000/svg" viewBox="0 0 28 32">
	<path d="M28.529 27.47l-5.566-5.566c1.731-1.97 2.787-4.57 2.787-7.417 0-6.221-5.043-11.264-11.264-11.264s-11.264 5.043-11.264 11.264c0 6.221 5.043 11.264 11.264 11.264 2.846 0 5.446-1.056 7.429-2.797l-0.013 0.011 5.566 5.566c0.136 0.136 0.323 0.22 0.53 0.22 0.414 0 0.75-0.336 0.75-0.75 0-0.207-0.084-0.395-0.22-0.53v0zM4.75 14.5c0-5.385 4.365-9.75 9.75-9.75s9.75 4.365 9.75 9.75c0 5.385-4.365 9.75-9.75 9.75v0c-5.382-0.006-9.744-4.368-9.75-9.749v-0.001z"></path>
</svg>