<svg xmlns="http://www.w3.org/2000/svg" viewBox="0 0 32 32">
<path d="M28.629 22.407c-0.002 0.003-0.003 0.005-0.005 0.008-0.029 0.043-0.060 0.081-0.095 0.116v0l-4 4c-0.136 0.136-0.323 0.219-0.53 0.219-0.414 0-0.75-0.336-0.75-0.75 0-0.207 0.084-0.394 0.219-0.53v0l2.72-2.72h-22.189c-0.414 0-0.75-0.336-0.75-0.75s0.336-0.75 0.75-0.75v0h22.189l-2.72-2.72c-0.136-0.136-0.219-0.323-0.219-0.53 0-0.414 0.336-0.75 0.75-0.75 0.207 0 0.394 0.084 0.53 0.219v0l4 4c0.035 0.035 0.066 0.072 0.093 0.113l0.002 0.003c0.002 0.003 0.003 0.005 0.005 0.008 0.023 0.035 0.045 0.075 0.062 0.117l0.002 0.005c0.001 0.003 0.002 0.006 0.003 0.009 0.015 0.037 0.029 0.080 0.038 0.125l0.001 0.005c0 0.002 0.001 0.005 0.001 0.007 0.008 0.041 0.013 0.089 0.013 0.138s-0.005 0.096-0.014 0.143l0.001-0.005c-0 0.002-0.001 0.005-0.001 0.007-0.010 0.050-0.023 0.094-0.040 0.135l0.002-0.005c-0.001 0.003-0.002 0.006-0.003 0.009-0.020 0.047-0.041 0.087-0.066 0.125l0.002-0.003zM3.306 9.715c-0.001 0.003-0.002 0.006-0.003 0.009-0.015 0.037-0.029 0.080-0.038 0.126l-0.001 0.005c-0.001 0.002-0.001 0.005-0.001 0.007-0.008 0.041-0.013 0.089-0.013 0.138s0.005 0.097 0.014 0.143l-0.001-0.005c0 0.002 0.001 0.005 0.001 0.007 0.010 0.050 0.023 0.094 0.040 0.135l-0.002-0.005c0.001 0.003 0.002 0.006 0.003 0.009 0.020 0.047 0.041 0.087 0.066 0.125l-0.002-0.003c0.002 0.003 0.003 0.005 0.005 0.008 0.029 0.043 0.060 0.081 0.095 0.116v0l4 4c0.136 0.136 0.323 0.22 0.531 0.22 0.414 0 0.75-0.336 0.75-0.75 0-0.207-0.084-0.395-0.22-0.531v0l-2.72-2.72h22.189c0.414 0 0.75-0.336 0.75-0.75s-0.336-0.75-0.75-0.75v0h-22.189l2.72-2.72c0.136-0.136 0.22-0.323 0.22-0.531 0-0.414-0.336-0.75-0.75-0.75-0.207 0-0.395 0.084-0.531 0.22v0l-3.999 4c-0.035 0.035-0.066 0.072-0.093 0.113l-0.002 0.003c-0.002 0.003-0.003 0.005-0.005 0.008-0.023 0.035-0.045 0.075-0.062 0.117l-0.002 0.005z"></path>
</svg>