<svg xmlns="http://www.w3.org/2000/svg" viewBox="0 0 32 32">
<path d="M30.685 15.695c-0.043-0.097-1.083-2.404-3.405-4.726-2.153-2.153-5.858-4.72-11.28-4.72s-9.127 2.567-11.28 4.72c-2.322 2.322-3.362 4.629-3.405 4.726-0.041 0.090-0.065 0.194-0.065 0.304s0.024 0.215 0.067 0.309l-0.002-0.005c0.043 0.097 1.083 2.404 3.405 4.725 2.153 2.153 5.858 4.719 11.28 4.719s9.127-2.566 11.28-4.719c2.322-2.322 3.362-4.628 3.405-4.725 0.041-0.090 0.065-0.194 0.065-0.305s-0.024-0.215-0.067-0.309l0.002 0.005zM16 24.249c-3.922 0-7.348-1.427-10.181-4.241-1.16-1.152-2.152-2.472-2.939-3.919l-0.044-0.089c0.83-1.536 1.823-2.856 2.982-4.008l0.001-0.001c2.833-2.815 6.259-4.242 10.181-4.242s7.348 1.427 10.181 4.242c1.16 1.153 2.152 2.472 2.939 3.92l0.044 0.089c-0.796 1.525-4.784 8.249-13.164 8.249zM16 10.25c-3.176 0-5.75 2.574-5.75 5.75s2.574 5.75 5.75 5.75c3.176 0 5.75-2.574 5.75-5.75v0c-0.004-3.174-2.576-5.746-5.75-5.75h-0zM16 20.25c-2.347 0-4.25-1.903-4.25-4.25s1.903-4.25 4.25-4.25c2.347 0 4.25 1.903 4.25 4.25v0c-0.003 2.346-1.904 4.247-4.25 4.25h-0z"></path>
</svg>